<svg width="191" height="28" viewBox="0 0 191 28" fill="none" xmlns="http://www.w3.org/2000/svg">
<line y1="12" x2="33" y2="12" stroke="#FCFCFD" stroke-width="4"/>
<path d="M40.544 19.3764C40.1946 19.3764 39.8942 19.2528 39.6428 19.0057C39.3913 18.7543 39.2656 18.4517 39.2656 18.098C39.2656 17.7486 39.3913 17.4503 39.6428 17.2031C39.8942 16.9517 40.1946 16.826 40.544 16.826C40.8935 16.826 41.1939 16.9517 41.4453 17.2031C41.6967 17.4503 41.8224 17.7486 41.8224 18.098C41.8224 18.3324 41.7628 18.5476 41.6435 18.7436C41.5284 18.9354 41.375 19.0888 41.1832 19.2038C40.9915 19.3189 40.7784 19.3764 40.544 19.3764ZM40.544 12.8182C40.1946 12.8182 39.8942 12.6946 39.6428 12.4474C39.3913 12.196 39.2656 11.8935 39.2656 11.5398C39.2656 11.1903 39.3913 10.892 39.6428 10.6449C39.8942 10.3935 40.1946 10.2678 40.544 10.2678C40.8935 10.2678 41.1939 10.3935 41.4453 10.6449C41.6967 10.892 41.8224 11.1903 41.8224 11.5398C41.8224 11.7741 41.7628 11.9893 41.6435 12.1854C41.5284 12.3771 41.375 12.5305 41.1832 12.6456C40.9915 12.7607 40.7784 12.8182 40.544 12.8182ZM45.6417 19.3764C45.2923 19.3764 44.9918 19.2528 44.7404 19.0057C44.489 18.7543 44.3633 18.4517 44.3633 18.098C44.3633 17.7486 44.489 17.4503 44.7404 17.2031C44.9918 16.9517 45.2923 16.826 45.6417 16.826C45.9911 16.826 46.2915 16.9517 46.543 17.2031C46.7944 17.4503 46.9201 17.7486 46.9201 18.098C46.9201 18.3324 46.8604 18.5476 46.7411 18.7436C46.6261 18.9354 46.4727 19.0888 46.2809 19.2038C46.0891 19.3189 45.8761 19.3764 45.6417 19.3764ZM45.6417 12.8182C45.2923 12.8182 44.9918 12.6946 44.7404 12.4474C44.489 12.196 44.3633 11.8935 44.3633 11.5398C44.3633 11.1903 44.489 10.892 44.7404 10.6449C44.9918 10.3935 45.2923 10.2678 45.6417 10.2678C45.9911 10.2678 46.2915 10.3935 46.543 10.6449C46.7944 10.892 46.9201 11.1903 46.9201 11.5398C46.9201 11.7741 46.8604 11.9893 46.7411 12.1854C46.6261 12.3771 46.4727 12.5305 46.2809 12.6456C46.0891 12.7607 45.8761 12.8182 45.6417 12.8182ZM59.4853 7.90909H61.454V17.1903C61.454 18.0298 61.2878 18.7479 60.9554 19.3445C60.6273 19.9411 60.165 20.397 59.5684 20.7124C58.9718 21.0234 58.2729 21.179 57.4718 21.179C56.7346 21.179 56.0719 21.0447 55.4838 20.7763C54.9 20.5078 54.4377 20.1179 54.0968 19.6065C53.7601 19.0909 53.5918 18.4645 53.5918 17.7273H55.5542C55.5542 18.0895 55.6373 18.4027 55.8034 18.6669C55.9739 18.9311 56.2061 19.1378 56.5002 19.2869C56.7985 19.4318 57.1394 19.5043 57.5229 19.5043C57.9405 19.5043 58.2942 19.4169 58.584 19.2422C58.878 19.0632 59.1017 18.8011 59.2551 18.456C59.4086 18.1108 59.4853 17.6889 59.4853 17.1903V7.90909ZM68.3111 21.1982C67.3906 21.1982 66.5874 20.9872 65.9013 20.5653C65.2152 20.1435 64.6825 19.5533 64.3033 18.7947C63.924 18.0362 63.7344 17.1499 63.7344 16.1357C63.7344 15.1172 63.924 14.2266 64.3033 13.4638C64.6825 12.701 65.2152 12.1087 65.9013 11.6868C66.5874 11.2649 67.3906 11.054 68.3111 11.054C69.2315 11.054 70.0348 11.2649 70.7209 11.6868C71.407 12.1087 71.9396 12.701 72.3189 13.4638C72.6982 14.2266 72.8878 15.1172 72.8878 16.1357C72.8878 17.1499 72.6982 18.0362 72.3189 18.7947C71.9396 19.5533 71.407 20.1435 70.7209 20.5653C70.0348 20.9872 69.2315 21.1982 68.3111 21.1982ZM68.3175 19.5938C68.9141 19.5938 69.4084 19.4361 69.8004 19.1207C70.1925 18.8054 70.4822 18.3857 70.6697 17.8615C70.8615 17.3374 70.9574 16.7599 70.9574 16.1293C70.9574 15.5028 70.8615 14.9276 70.6697 14.4034C70.4822 13.875 70.1925 13.451 69.8004 13.1314C69.4084 12.8118 68.9141 12.652 68.3175 12.652C67.7166 12.652 67.218 12.8118 66.8217 13.1314C66.4297 13.451 66.1378 13.875 65.946 14.4034C65.7585 14.9276 65.6648 15.5028 65.6648 16.1293C65.6648 16.7599 65.7585 17.3374 65.946 17.8615C66.1378 18.3857 66.4297 18.8054 66.8217 19.1207C67.218 19.4361 67.7166 19.5938 68.3175 19.5938ZM75.0211 21V11.1818H76.9324V21H75.0211ZM75.9863 9.6669C75.6539 9.6669 75.3684 9.55611 75.1298 9.33452C74.8954 9.10866 74.7782 8.8402 74.7782 8.52912C74.7782 8.21378 74.8954 7.94531 75.1298 7.72372C75.3684 7.49787 75.6539 7.38494 75.9863 7.38494C76.3187 7.38494 76.6021 7.49787 76.8365 7.72372C77.0751 7.94531 77.1944 8.21378 77.1944 8.52912C77.1944 8.8402 77.0751 9.10866 76.8365 9.33452C76.6021 9.55611 76.3187 9.6669 75.9863 9.6669ZM81.4148 15.1705V21H79.5036V11.1818H81.3381V12.7798H81.4595C81.6854 12.2599 82.0391 11.8423 82.5206 11.527C83.0064 11.2116 83.6179 11.054 84.3551 11.054C85.0241 11.054 85.6101 11.1946 86.1129 11.4759C86.6158 11.7528 87.0057 12.1662 87.2827 12.7159C87.5597 13.2656 87.6982 13.9453 87.6982 14.755V21H85.7869V14.9851C85.7869 14.2734 85.6016 13.7173 85.2308 13.3168C84.8601 12.9119 84.3509 12.7095 83.7031 12.7095C83.2599 12.7095 82.8658 12.8054 82.5206 12.9972C82.1797 13.1889 81.9091 13.4702 81.7088 13.8409C81.5128 14.2074 81.4148 14.6506 81.4148 15.1705ZM102.318 11.348C102.25 10.7429 101.969 10.2741 101.475 9.94176C100.98 9.60511 100.358 9.43679 99.6081 9.43679C99.0712 9.43679 98.6067 9.52202 98.2147 9.69247C97.8226 9.85866 97.5179 10.0888 97.3006 10.3828C97.0875 10.6726 96.981 11.0028 96.981 11.3736C96.981 11.6847 97.0534 11.9531 97.1983 12.179C97.3475 12.4048 97.5414 12.5945 97.78 12.7479C98.0229 12.897 98.2828 13.0227 98.5598 13.125C98.8368 13.223 99.1032 13.304 99.3588 13.3679L100.637 13.7003C101.055 13.8026 101.483 13.9411 101.922 14.1158C102.361 14.2905 102.768 14.5206 103.143 14.8061C103.518 15.0916 103.82 15.4453 104.051 15.8672C104.285 16.2891 104.402 16.794 104.402 17.3821C104.402 18.1236 104.21 18.782 103.827 19.3572C103.448 19.9325 102.896 20.3864 102.171 20.7188C101.451 21.0511 100.58 21.2173 99.557 21.2173C98.5769 21.2173 97.7289 21.0618 97.013 20.7507C96.2971 20.4396 95.7367 19.9986 95.3319 19.4276C94.927 18.8523 94.7033 18.1705 94.6607 17.3821H96.6422C96.6806 17.8551 96.834 18.2493 97.1025 18.5646C97.3752 18.8757 97.7225 19.108 98.1444 19.2614C98.5705 19.4105 99.0371 19.4851 99.5442 19.4851C100.102 19.4851 100.599 19.3977 101.034 19.223C101.472 19.044 101.818 18.7969 102.069 18.4815C102.32 18.1619 102.446 17.7891 102.446 17.3629C102.446 16.9751 102.335 16.6577 102.114 16.4105C101.896 16.1634 101.6 15.9588 101.225 15.7969C100.855 15.6349 100.435 15.4922 99.9661 15.3686L98.4192 14.9467C97.3709 14.6612 96.54 14.2415 95.9263 13.6875C95.3169 13.1335 95.0123 12.4006 95.0123 11.4886C95.0123 10.7344 95.2168 10.076 95.6259 9.51349C96.035 8.95099 96.589 8.5142 97.2878 8.20312C97.9867 7.88778 98.775 7.73011 99.6529 7.73011C100.539 7.73011 101.321 7.88565 101.999 8.19673C102.681 8.50781 103.218 8.93608 103.61 9.48153C104.002 10.0227 104.206 10.6449 104.223 11.348H102.318ZM108.367 17.6697L108.354 15.3366H108.686L112.598 11.1818H114.887L110.425 15.9119H110.125L108.367 17.6697ZM106.609 21V7.90909H108.52V21H106.609ZM112.809 21L109.294 16.3338L110.61 14.9979L115.155 21H112.809ZM116.629 21V11.1818H118.54V21H116.629ZM117.594 9.6669C117.261 9.6669 116.976 9.55611 116.737 9.33452C116.503 9.10866 116.386 8.8402 116.386 8.52912C116.386 8.21378 116.503 7.94531 116.737 7.72372C116.976 7.49787 117.261 7.38494 117.594 7.38494C117.926 7.38494 118.21 7.49787 118.444 7.72372C118.683 7.94531 118.802 8.21378 118.802 8.52912C118.802 8.8402 118.683 9.10866 118.444 9.33452C118.21 9.55611 117.926 9.6669 117.594 9.6669ZM121.111 21V11.1818H123.022V21H121.111ZM122.076 9.6669C121.744 9.6669 121.458 9.55611 121.22 9.33452C120.985 9.10866 120.868 8.8402 120.868 8.52912C120.868 8.21378 120.985 7.94531 121.22 7.72372C121.458 7.49787 121.744 7.38494 122.076 7.38494C122.409 7.38494 122.692 7.49787 122.926 7.72372C123.165 7.94531 123.284 8.21378 123.284 8.52912C123.284 8.8402 123.165 9.10866 122.926 9.33452C122.692 9.55611 122.409 9.6669 122.076 9.6669ZM127.505 7.90909V21H125.593V7.90909H127.505ZM131.987 7.90909V21H130.076V7.90909H131.987ZM137.415 21.2173C136.793 21.2173 136.231 21.1023 135.728 20.8722C135.225 20.6378 134.827 20.299 134.533 19.8558C134.243 19.4126 134.098 18.8693 134.098 18.2259C134.098 17.6719 134.205 17.2159 134.418 16.858C134.631 16.5 134.918 16.2166 135.281 16.0078C135.643 15.799 136.048 15.6413 136.495 15.5348C136.942 15.4283 137.398 15.3473 137.863 15.2919C138.451 15.2237 138.928 15.1683 139.295 15.1257C139.661 15.0788 139.928 15.0043 140.094 14.902C140.26 14.7997 140.343 14.6335 140.343 14.4034V14.3587C140.343 13.8004 140.185 13.3679 139.87 13.0611C139.559 12.7543 139.094 12.6009 138.477 12.6009C137.833 12.6009 137.326 12.7436 136.955 13.0291C136.589 13.3104 136.335 13.6236 136.195 13.9688L134.398 13.5597C134.612 12.9631 134.923 12.4815 135.332 12.1151C135.745 11.7443 136.22 11.4759 136.757 11.3097C137.294 11.1392 137.859 11.054 138.451 11.054C138.843 11.054 139.259 11.1009 139.697 11.1946C140.141 11.2841 140.554 11.4503 140.938 11.6932C141.325 11.9361 141.643 12.2834 141.89 12.7351C142.137 13.1825 142.261 13.7642 142.261 14.4801V21H140.394V19.6577H140.317C140.194 19.9048 140.009 20.1477 139.761 20.3864C139.514 20.625 139.197 20.8232 138.809 20.9808C138.421 21.1385 137.957 21.2173 137.415 21.2173ZM137.831 19.6832C138.359 19.6832 138.811 19.5788 139.186 19.37C139.565 19.1612 139.853 18.8885 140.049 18.5518C140.249 18.2109 140.349 17.8466 140.349 17.4588V16.1932C140.281 16.2614 140.149 16.3253 139.953 16.3849C139.761 16.4403 139.542 16.4893 139.295 16.532C139.048 16.5703 138.807 16.6065 138.572 16.6406C138.338 16.6705 138.142 16.696 137.984 16.7173C137.614 16.7642 137.275 16.843 136.968 16.9538C136.665 17.0646 136.423 17.2244 136.239 17.4332C136.06 17.6378 135.971 17.9105 135.971 18.2514C135.971 18.7244 136.146 19.0824 136.495 19.3253C136.844 19.5639 137.29 19.6832 137.831 19.6832ZM152.164 13.5788L150.431 13.8857C150.359 13.6641 150.244 13.4531 150.086 13.2528C149.933 13.0526 149.724 12.8885 149.46 12.7607C149.195 12.6328 148.865 12.5689 148.469 12.5689C147.928 12.5689 147.476 12.6903 147.114 12.9332C146.752 13.1719 146.57 13.4808 146.57 13.8601C146.57 14.1882 146.692 14.4524 146.935 14.6527C147.178 14.853 147.57 15.017 148.111 15.1449L149.671 15.5028C150.574 15.7116 151.247 16.0334 151.691 16.468C152.134 16.9027 152.355 17.4673 152.355 18.1619C152.355 18.75 152.185 19.2741 151.844 19.7344C151.507 20.1903 151.036 20.5483 150.431 20.8082C149.83 21.0682 149.134 21.1982 148.341 21.1982C147.242 21.1982 146.345 20.9638 145.65 20.495C144.955 20.022 144.529 19.3509 144.372 18.4815L146.219 18.2003C146.334 18.6818 146.57 19.0462 146.928 19.2933C147.286 19.5362 147.753 19.6577 148.328 19.6577C148.955 19.6577 149.455 19.5277 149.83 19.2678C150.205 19.0036 150.393 18.6818 150.393 18.3026C150.393 17.9957 150.278 17.7379 150.048 17.5291C149.822 17.3203 149.475 17.1626 149.006 17.0561L147.344 16.6918C146.428 16.483 145.75 16.1506 145.311 15.6946C144.877 15.2386 144.659 14.6612 144.659 13.9624C144.659 13.3828 144.821 12.8757 145.145 12.4411C145.469 12.0064 145.916 11.6676 146.487 11.4247C147.058 11.1776 147.713 11.054 148.45 11.054C149.511 11.054 150.346 11.2841 150.955 11.7443C151.565 12.2003 151.968 12.8118 152.164 13.5788ZM161.814 13.5788L160.082 13.8857C160.009 13.6641 159.894 13.4531 159.737 13.2528C159.583 13.0526 159.374 12.8885 159.11 12.7607C158.846 12.6328 158.516 12.5689 158.119 12.5689C157.578 12.5689 157.126 12.6903 156.764 12.9332C156.402 13.1719 156.221 13.4808 156.221 13.8601C156.221 14.1882 156.342 14.4524 156.585 14.6527C156.828 14.853 157.22 15.017 157.761 15.1449L159.321 15.5028C160.224 15.7116 160.898 16.0334 161.341 16.468C161.784 16.9027 162.006 17.4673 162.006 18.1619C162.006 18.75 161.835 19.2741 161.494 19.7344C161.158 20.1903 160.687 20.5483 160.082 20.8082C159.481 21.0682 158.784 21.1982 157.991 21.1982C156.892 21.1982 155.995 20.9638 155.3 20.495C154.606 20.022 154.18 19.3509 154.022 18.4815L155.869 18.2003C155.984 18.6818 156.221 19.0462 156.579 19.2933C156.937 19.5362 157.403 19.6577 157.979 19.6577C158.605 19.6577 159.106 19.5277 159.481 19.2678C159.856 19.0036 160.043 18.6818 160.043 18.3026C160.043 17.9957 159.928 17.7379 159.698 17.5291C159.472 17.3203 159.125 17.1626 158.656 17.0561L156.994 16.6918C156.078 16.483 155.401 16.1506 154.962 15.6946C154.527 15.2386 154.31 14.6612 154.31 13.9624C154.31 13.3828 154.472 12.8757 154.795 12.4411C155.119 12.0064 155.567 11.6676 156.138 11.4247C156.709 11.1776 157.363 11.054 158.1 11.054C159.161 11.054 159.996 11.2841 160.606 11.7443C161.215 12.2003 161.618 12.8118 161.814 13.5788ZM170.327 16.9283V11.1818H172.244V21H170.365V19.2997H170.263C170.037 19.8239 169.675 20.2607 169.176 20.6101C168.682 20.9553 168.066 21.1278 167.329 21.1278C166.698 21.1278 166.14 20.9893 165.654 20.7124C165.172 20.4311 164.793 20.0156 164.516 19.4659C164.243 18.9162 164.107 18.2365 164.107 17.4268V11.1818H166.018V17.1967C166.018 17.8658 166.204 18.3984 166.574 18.7947C166.945 19.1911 167.427 19.3892 168.019 19.3892C168.377 19.3892 168.733 19.2997 169.086 19.1207C169.444 18.9418 169.741 18.6712 169.975 18.3089C170.214 17.9467 170.331 17.4865 170.327 16.9283ZM174.812 21V11.1818H176.659V12.7415H176.762C176.941 12.2131 177.256 11.7976 177.708 11.495C178.164 11.1882 178.679 11.0348 179.255 11.0348C179.374 11.0348 179.515 11.0391 179.676 11.0476C179.843 11.0561 179.973 11.0668 180.066 11.0795V12.9077C179.99 12.8864 179.853 12.8629 179.657 12.8374C179.461 12.8075 179.265 12.7926 179.069 12.7926C178.618 12.7926 178.215 12.8885 177.861 13.0803C177.512 13.2678 177.235 13.5298 177.03 13.8665C176.826 14.1989 176.723 14.5781 176.723 15.0043V21H174.812ZM185.6 21.1982C184.633 21.1982 183.8 20.9915 183.101 20.5781C182.406 20.1605 181.869 19.5746 181.49 18.8203C181.115 18.0618 180.928 17.1733 180.928 16.1548C180.928 15.1491 181.115 14.2628 181.49 13.4957C181.869 12.7287 182.398 12.13 183.075 11.6996C183.757 11.2692 184.554 11.054 185.466 11.054C186.02 11.054 186.557 11.1456 187.077 11.3288C187.597 11.5121 188.063 11.7997 188.477 12.1918C188.89 12.5838 189.216 13.093 189.455 13.7195C189.693 14.3416 189.813 15.098 189.813 15.9886V16.6662H182.008V15.2344H187.94C187.94 14.7315 187.838 14.2862 187.633 13.8984C187.428 13.5064 187.141 13.1974 186.77 12.9716C186.404 12.7457 185.973 12.6328 185.479 12.6328C184.942 12.6328 184.473 12.7649 184.073 13.0291C183.676 13.2891 183.369 13.63 183.152 14.0518C182.939 14.4695 182.833 14.9233 182.833 15.4134V16.532C182.833 17.1882 182.948 17.7464 183.178 18.2067C183.412 18.6669 183.738 19.0185 184.156 19.2614C184.573 19.5 185.061 19.6193 185.619 19.6193C185.982 19.6193 186.312 19.5682 186.61 19.4659C186.909 19.3594 187.166 19.2017 187.384 18.9929C187.601 18.7841 187.767 18.5263 187.882 18.2195L189.691 18.5455C189.546 19.0781 189.286 19.5447 188.911 19.9453C188.541 20.3416 188.074 20.6506 187.512 20.8722C186.953 21.0895 186.316 21.1982 185.6 21.1982Z" fill="white"/>
</svg>
