<svg width="396" height="323" viewBox="0 0 396 323" fill="none" xmlns="http://www.w3.org/2000/svg">
<path d="M396 283.333H0V283.548H396V283.333Z" fill="#EBEBEB"/>
<path d="M352.646 293.242H312.333V293.457H352.646V293.242Z" fill="#EBEBEB"/>
<path d="M78.9387 290.68H41.5483V290.895H78.9387V290.68Z" fill="#EBEBEB"/>
<path d="M315.216 289.226H300.018V289.441H315.216V289.226Z" fill="#EBEBEB"/>
<path d="M262.326 294.964H251.175V295.179H262.326V294.964Z" fill="#EBEBEB"/>
<path d="M244.118 294.964H216.05V295.179H244.118V294.964Z" fill="#EBEBEB"/>
<path d="M199.75 291.312H154.614V291.527H199.75V291.312Z" fill="#EBEBEB"/>
<path d="M187.704 244.736H34.7767C33.5787 244.734 32.4305 244.212 31.5841 243.286C30.7377 242.359 30.2623 241.104 30.2623 239.794V4.89818C30.2728 3.59664 30.7527 2.35215 31.598 1.43503C32.4433 0.517907 33.5855 0.00222961 34.7767 0H187.704C188.903 0 190.054 0.520616 190.902 1.44732C191.75 2.37402 192.226 3.6309 192.226 4.94145V239.794C192.226 241.105 191.75 242.362 190.902 243.289C190.054 244.215 188.903 244.736 187.704 244.736V244.736ZM34.7767 0.173081C33.6312 0.175374 32.5333 0.674205 31.7241 1.56008C30.9148 2.44596 30.4603 3.6465 30.4603 4.89818V239.794C30.4603 241.046 30.9148 242.247 31.7241 243.133C32.5333 244.018 33.6312 244.517 34.7767 244.52H187.704C188.85 244.517 189.949 244.019 190.759 243.133C191.57 242.247 192.026 241.047 192.028 239.794V4.89818C192.026 3.64571 191.57 2.44519 190.759 1.55956C189.949 0.673924 188.85 0.175369 187.704 0.173081H34.7767Z" fill="#EBEBEB"/>
<path d="M359.021 244.736H206.086C204.888 244.734 203.738 244.212 202.891 243.286C202.043 242.36 201.566 241.104 201.564 239.794V4.89818C201.576 3.59585 202.058 2.35137 202.905 1.43449C203.751 0.517605 204.894 0.0022053 206.086 0H359.021C360.211 0.00450399 361.352 0.521188 362.195 1.43806C363.039 2.35494 363.518 3.59813 363.528 4.89818V239.794C363.528 241.102 363.054 242.356 362.209 243.282C361.364 244.209 360.218 244.731 359.021 244.736V244.736ZM206.086 0.173081C204.94 0.175369 203.841 0.673924 203.031 1.55956C202.22 2.44519 201.764 3.64571 201.762 4.89818V239.794C201.764 241.047 202.22 242.247 203.031 243.133C203.841 244.019 204.94 244.517 206.086 244.52H359.021C360.168 244.517 361.266 244.019 362.077 243.133C362.887 242.247 363.344 241.047 363.346 239.794V4.89818C363.344 3.64571 362.887 2.44519 362.077 1.55956C361.266 0.673924 360.168 0.175369 359.021 0.173081H206.086Z" fill="#EBEBEB"/>
<path d="M309.173 26.542H228.547V283.333H309.173V26.542Z" fill="#EBEBEB"/>
<path d="M303.732 278.141V31.7344L233.989 31.7344V278.141H303.732Z" fill="#FAFAFA"/>
<path d="M226.132 26.542H145.506V283.333H226.132V26.542Z" fill="#EBEBEB"/>
<path d="M226.132 282.329H228.547L228.547 27.5542H226.132L226.132 282.329Z" fill="#E0E0E0"/>
<path d="M220.691 278.132V31.7256L150.947 31.7256V278.132H220.691Z" fill="#FAFAFA"/>
<path d="M346.001 24.612H108.678C108.4 24.6098 108.133 24.4878 107.936 24.2724C107.739 24.0571 107.627 23.7656 107.625 23.461V23.461C107.627 23.1565 107.739 22.865 107.936 22.6497C108.133 22.4343 108.4 22.3123 108.678 22.3101H346.001C346.28 22.3123 346.547 22.4343 346.744 22.6497C346.941 22.865 347.052 23.1565 347.054 23.461V23.461C347.052 23.7656 346.941 24.0571 346.744 24.2724C346.547 24.4878 346.28 24.6098 346.001 24.612V24.612Z" fill="#E0E0E0"/>
<path d="M303.732 36.6412V31.7344L233.989 31.7344V36.6412L303.732 36.6412Z" fill="#E0E0E0"/>
<path d="M303.732 39.9988V31.7256L233.989 31.7256V39.9988L303.732 39.9988Z" fill="#E0E0E0"/>
<path d="M220.691 49.8039V31.7256L150.947 31.7256V49.8039H220.691Z" fill="#E0E0E0"/>
<g opacity="0.8">
<path d="M319.524 16.9272H297.19V280.174H319.524V16.9272Z" fill="#F5F5F5"/>
<path d="M313.632 16.9272H303.09V280.174H313.632V16.9272Z" fill="#F0F0F0"/>
<path d="M331.508 16.9272H309.173V280.174H331.508V16.9272Z" fill="#F5F5F5"/>
<path d="M325.615 16.9272H315.073V280.174H325.615V16.9272Z" fill="#F0F0F0"/>
<path d="M342.675 16.9272H320.34V280.174H342.675V16.9272Z" fill="#F5F5F5"/>
</g>
<g opacity="0.8">
<path d="M143.716 16.9272H111.3V280.174H143.716V16.9272Z" fill="#F5F5F5"/>
<path d="M135.155 16.9272H119.853V280.174H135.155V16.9272Z" fill="#F0F0F0"/>
<path d="M161.101 16.9272H128.684V280.174H161.101V16.9272Z" fill="#F5F5F5"/>
<path d="M152.539 16.9272H137.238V280.174H152.539V16.9272Z" fill="#F0F0F0"/>
<path d="M177.305 16.9272H144.888V280.174H177.305V16.9272Z" fill="#F5F5F5"/>
</g>
<path d="M95.9112 43.9019H43.6155V172.561H95.9112V43.9019Z" fill="#F0F0F0"/>
<path d="M95.9112 172.57H97.5585L97.5585 43.9104H95.9112L95.9112 172.57Z" fill="#E6E6E6"/>
<path d="M91.1592 167.369V49.094H48.3674L48.3674 167.369H91.1592Z" fill="#FAFAFA"/>
<path d="M99.206 236.316H45.5242C44.3436 236.313 43.2119 235.8 42.3763 234.889C41.5408 233.978 41.0694 232.742 41.0652 231.452V231.452C41.0694 230.162 41.5408 228.926 42.3763 228.015C43.2119 227.104 44.3436 226.591 45.5242 226.588H99.206C100.385 226.593 101.515 227.107 102.349 228.018C103.183 228.929 103.653 230.163 103.657 231.452V231.452C103.653 232.74 103.183 233.975 102.349 234.886C101.515 235.797 100.385 236.311 99.206 236.316Z" fill="#F5F5F5"/>
<path d="M58.4337 236.316H49.6188L39.6 283.333H48.407L58.4337 236.316Z" fill="#E6E6E6"/>
<path d="M76.0162 236.316H67.2091L62.275 283.333H71.082L76.0162 236.316Z" fill="#E6E6E6"/>
<path d="M86.2964 236.316H95.1034L105.13 283.333H96.3152L86.2964 236.316Z" fill="#E6E6E6"/>
<path d="M198 322.414C282.809 322.414 351.561 318.028 351.561 312.618C351.561 307.208 282.809 302.822 198 302.822C113.191 302.822 44.4391 307.208 44.4391 312.618C44.4391 318.028 113.191 322.414 198 322.414Z" fill="#D3D3D3"/>
<path d="M249.14 210.604H181.558C180.277 210.604 179.238 211.74 179.238 213.14V216.048C179.238 217.448 180.277 218.583 181.558 218.583H249.14C250.421 218.583 251.46 217.448 251.46 216.048V213.14C251.46 211.74 250.421 210.604 249.14 210.604Z" fill="#263238"/>
<path d="M248.498 307.426H251.46L248.054 218.583H243.952L248.498 307.426Z" fill="#0192D9"/>
<path opacity="0.6" d="M248.498 307.426H251.46L248.054 218.583H243.952L248.498 307.426Z" fill="white"/>
<path d="M221.229 307.426H218.267L221.673 218.583H225.775L221.229 307.426Z" fill="#0192D9"/>
<path opacity="0.6" d="M221.229 307.426H218.267L221.673 218.583H225.775L221.229 307.426Z" fill="white"/>
<path d="M209.476 307.426H212.438L209.025 218.583H204.93L209.476 307.426Z" fill="#0192D9"/>
<path opacity="0.6" d="M209.476 307.426H212.438L209.025 218.583H204.93L209.476 307.426Z" fill="white"/>
<path d="M182.2 307.426H179.238L182.651 218.583H186.746L182.2 307.426Z" fill="#0192D9"/>
<path opacity="0.6" d="M182.2 307.426H179.238L182.651 218.583H186.746L182.2 307.426Z" fill="white"/>
<g opacity="0.3">
<path d="M248.054 218.575H243.952L244.142 222.357H248.197L248.054 218.575Z" fill="#0192D9"/>
<path d="M221.53 222.357H225.577L225.775 218.575H221.673L221.53 222.357Z" fill="#0192D9"/>
<path d="M204.93 218.575L205.12 222.357H209.175L209.025 218.575H204.93Z" fill="#0192D9"/>
<path d="M182.5 222.357H186.563L186.754 218.575H182.651L182.5 222.357Z" fill="#0192D9"/>
</g>
<path d="M207.567 294.367L200.867 298.261L190.302 282.675L197.01 278.781L207.567 294.367Z" fill="#FFB573"/>
<path d="M198.443 295.855L205.445 290.542C205.502 290.488 205.569 290.449 205.641 290.425C205.713 290.402 205.789 290.395 205.863 290.406C205.938 290.416 206.01 290.444 206.074 290.487C206.138 290.529 206.194 290.586 206.237 290.654L210.426 296.444C210.628 296.763 210.707 297.155 210.646 297.537C210.585 297.919 210.39 298.26 210.102 298.486C207.638 300.286 206.53 300.918 203.306 303.012C201.318 304.293 196.566 307.339 193.644 308.732C190.721 310.126 189.549 306.924 190.674 306.05C193.343 303.99 196.875 299.94 197.675 297.093C197.799 296.598 198.069 296.163 198.443 295.855V295.855Z" fill="#263238"/>
<path opacity="0.2" d="M197.018 278.789L190.302 282.675L195.394 290.187L201.952 286.067L197.018 278.789Z" fill="black"/>
<path d="M213.198 186.468C213.198 186.468 161.132 184.694 160.926 208.466C160.673 242.633 190.349 287.504 190.349 287.504L201.96 279.066C201.96 279.066 181.621 246.449 181.447 219.777C196.788 215.044 232.927 218.046 237.608 204.113C241.441 192.742 239.437 186.468 239.437 186.468H213.198Z" fill="#0192D9"/>
<path opacity="0.2" d="M213.198 186.468C213.198 186.468 161.132 184.694 160.926 208.466C160.673 242.633 190.349 287.504 190.349 287.504L201.96 279.066C201.96 279.066 181.621 246.449 181.447 219.777C196.788 215.044 232.927 218.046 237.608 204.113C241.441 192.742 239.437 186.468 239.437 186.468H213.198Z" fill="black"/>
<path d="M205.112 281.238L191.3 290.481L186.967 285.678L202.142 275.232L205.112 281.238Z" fill="#263238"/>
<path d="M196.994 298.72C197.547 298.283 198.052 297.777 198.499 297.214C198.523 297.186 198.538 297.152 198.544 297.114C198.549 297.077 198.544 297.039 198.53 297.004C198.516 296.97 198.492 296.941 198.463 296.922C198.433 296.902 198.399 296.892 198.364 296.894C198.071 296.894 195.474 296.894 194.919 297.82C194.856 297.923 194.817 298.043 194.808 298.167C194.798 298.291 194.817 298.416 194.864 298.529C194.916 298.709 195.011 298.87 195.139 298.996C195.267 299.122 195.424 299.209 195.592 299.248C196.103 299.266 196.602 299.078 196.994 298.72V298.72ZM197.953 297.292C196.994 298.382 196.147 298.962 195.656 298.867C195.546 298.84 195.444 298.781 195.363 298.695C195.282 298.61 195.224 298.501 195.196 298.382C195.167 298.33 195.151 298.27 195.151 298.209C195.151 298.148 195.167 298.088 195.196 298.036C195.513 297.551 196.915 297.335 197.953 297.292V297.292Z" fill="#0192D9"/>
<path d="M198.467 297.248C198.49 297.23 198.509 297.206 198.523 297.179C198.538 297.15 198.546 297.117 198.546 297.084C198.546 297.051 198.538 297.018 198.523 296.989C198.475 296.902 197.366 294.843 196.321 294.652C196.18 294.622 196.035 294.629 195.897 294.673C195.759 294.717 195.633 294.796 195.529 294.903C195.41 295 195.323 295.138 195.283 295.295C195.243 295.451 195.251 295.618 195.307 295.769C195.64 296.634 197.469 297.335 198.348 297.274L198.467 297.248ZM195.862 295.102C195.919 295.056 195.984 295.022 196.054 295.005C196.123 294.987 196.195 294.985 196.265 294.998C196.891 295.111 197.651 296.193 198.047 296.85C197.184 296.764 195.885 296.158 195.671 295.595C195.632 295.492 195.608 295.344 195.806 295.154C195.822 295.171 195.838 295.145 195.862 295.102Z" fill="#0192D9"/>
<path d="M195.172 303.921L187.648 303.531L186.413 284.12L193.937 284.51L195.172 303.921Z" fill="#FFB573"/>
<path d="M187.474 302.129L195.988 301.835C196.132 301.823 196.274 301.874 196.384 301.976C196.494 302.078 196.562 302.223 196.574 302.38L197.2 309.727C197.213 310.116 197.084 310.495 196.842 310.78C196.6 311.066 196.265 311.235 195.909 311.251C192.947 311.251 191.521 311.155 187.775 311.251C185.471 311.328 180.94 311.701 177.78 311.251C174.62 310.801 175.103 307.417 176.473 307.287C179.729 307.001 184.092 304.544 186.183 302.631C186.551 302.313 187.005 302.137 187.474 302.129V302.129Z" fill="#263238"/>
<path d="M184.829 303.661C185.51 303.621 186.184 303.499 186.841 303.298C186.874 303.288 186.903 303.268 186.926 303.241C186.949 303.213 186.964 303.178 186.969 303.142C186.974 303.105 186.969 303.067 186.955 303.033C186.94 302.999 186.917 302.971 186.888 302.951C186.643 302.778 184.449 301.221 183.538 301.671C183.434 301.72 183.343 301.798 183.274 301.896C183.205 301.995 183.159 302.11 183.142 302.233C183.095 302.414 183.093 302.606 183.136 302.789C183.179 302.971 183.266 303.138 183.388 303.272C183.806 303.596 184.321 303.735 184.829 303.661V303.661ZM186.342 303.038C184.995 303.375 183.966 303.367 183.633 302.995C183.556 302.905 183.501 302.795 183.475 302.675C183.448 302.555 183.451 302.429 183.483 302.311C183.489 302.251 183.51 302.193 183.544 302.145C183.577 302.096 183.622 302.058 183.673 302.034C184.164 301.8 185.447 302.449 186.342 303.038V303.038Z" fill="#0192D9"/>
<path d="M186.801 303.306C186.827 303.314 186.854 303.314 186.88 303.306C186.906 303.291 186.928 303.269 186.943 303.241C186.958 303.214 186.967 303.182 186.967 303.15C186.967 303.047 187.078 300.658 186.286 299.879C186.183 299.771 186.056 299.692 185.918 299.65C185.78 299.607 185.634 299.603 185.494 299.637C185.343 299.646 185.198 299.711 185.085 299.821C184.971 299.931 184.895 300.079 184.868 300.243C184.718 301.108 185.898 302.839 186.666 303.306C186.71 303.322 186.757 303.322 186.801 303.306V303.306ZM185.668 299.983C185.738 299.978 185.808 299.99 185.874 300.017C185.939 300.044 185.999 300.085 186.049 300.139C186.524 300.606 186.619 301.965 186.627 302.735C185.946 302.147 185.154 300.866 185.257 300.269C185.257 300.156 185.328 300.018 185.581 299.974L185.668 299.983Z" fill="#0192D9"/>
<path opacity="0.2" d="M193.945 284.51L186.413 284.12L187.118 295.223L194.626 295.215L193.945 284.51Z" fill="black"/>
<path d="M231.715 186.468C231.715 186.468 177.242 192.093 179.222 210.016C182.089 235.857 183.498 291.554 183.498 291.554L197.382 292.151C197.382 292.151 203.267 241.958 200.225 215.451C214.323 215.451 248.838 216.558 251.983 207.281C254.762 199.077 253.772 186.512 253.772 186.512L231.715 186.468Z" fill="#0192D9"/>
<path d="M198.919 293.086L182.255 292.186L181.653 284.259L199.933 285.635L198.919 293.086Z" fill="#263238"/>
<path d="M219.629 133.973C219.526 135.427 219.423 136.69 219.273 138.023C219.123 139.356 218.964 140.619 218.774 141.969C218.402 144.566 217.927 147.162 217.372 149.819C216.293 155.308 214.537 160.612 212.153 165.586C211.441 166.983 210.623 168.312 209.706 169.558C208.68 170.965 207.469 172.196 206.11 173.21C203.496 175.107 200.473 176.223 197.343 176.447C194.601 176.643 191.849 176.351 189.193 175.582C187.94 175.231 186.707 174.798 185.502 174.284C184.9 174.033 184.314 173.756 183.736 173.418C183.158 173.081 182.619 172.804 181.954 172.414L184.037 166.625L185.55 166.832L187.134 167.005C188.195 167.101 189.24 167.161 190.302 167.161C192.226 167.197 194.146 166.955 196.012 166.443C197.507 166.051 198.892 165.263 200.043 164.15C200.537 163.645 200.978 163.082 201.358 162.471C201.826 161.684 202.244 160.862 202.609 160.013C203.447 158.027 204.133 155.969 204.661 153.86C205.263 151.671 205.746 149.377 206.181 147.041C206.617 144.704 206.973 142.341 207.33 139.962L207.797 136.379C207.939 135.202 208.098 133.938 208.201 132.917L219.629 133.973Z" fill="#FFB573"/>
<path d="M219.677 126.92C214.133 121.044 207.243 124.514 204.502 135.574C202.951 141.478 201.891 147.522 201.334 153.635L218.972 157.616C222.18 147.066 225.379 132.943 219.677 126.92Z" fill="#263238"/>
<path opacity="0.3" d="M213.998 138.949C215.258 137.711 218.837 143.276 221.023 150.139C220.406 152.735 219.701 155.236 218.98 157.581L208.367 155.184C209.215 148.33 211.171 141.735 213.998 138.949Z" fill="black"/>
<path d="M182.841 164.028L178.881 162.375L178.707 171.557C178.707 171.557 185.36 174.699 186.714 171.09L186.239 168.797C186.01 167.786 185.589 166.84 185.003 166.018C184.418 165.197 183.681 164.519 182.841 164.028Z" fill="#FFB573"/>
<path d="M174.208 162.618L171.872 170.32L178.739 171.557L178.913 162.375L174.208 162.618Z" fill="#FFB573"/>
<path d="M180.196 168.753C180.112 168.755 180.03 168.73 179.958 168.683C179.887 168.635 179.829 168.567 179.792 168.485L172.719 153.609C172.663 153.492 172.652 153.355 172.687 153.229C172.723 153.102 172.803 152.996 172.909 152.934C173.018 152.875 173.143 152.865 173.258 152.906C173.373 152.946 173.47 153.034 173.527 153.15L180.576 168C180.632 168.118 180.643 168.254 180.608 168.381C180.572 168.507 180.492 168.613 180.386 168.675C180.328 168.715 180.263 168.741 180.196 168.753V168.753Z" fill="#263238"/>
<path d="M219.02 121.026L227.478 118.43L238.344 117.876C239.995 117.79 241.625 118.299 242.985 119.325C244.345 120.351 245.358 121.836 245.868 123.553C247.936 130.477 249.828 140.446 251.23 149.074C252.814 158.758 253.606 173.305 253.773 186.511H213.198C212.272 158.948 209.064 142.653 207.654 133.635C207.373 131.868 207.63 130.049 208.385 128.456C209.141 126.863 210.353 125.585 211.836 124.817L219.02 121.026Z" fill="#263238"/>
<path opacity="0.3" d="M251.23 149.04C250.137 142.246 248.728 134.596 247.159 128.27C239.928 126.937 236.428 144.263 238.574 152.856C240.72 161.45 252.165 156.24 252.165 156.24C251.896 153.652 251.579 151.22 251.23 149.04Z" fill="black"/>
<path d="M226.037 100.387C227.779 105.06 226.734 113.627 223.296 111.204C219.859 108.781 224.975 97.5483 226.037 100.387Z" fill="#263238"/>
<path d="M224.136 103.381L220.849 108.868L216.382 116.336C216.959 116.975 217.426 117.722 217.76 118.543C218.552 120.343 219.257 121.684 215.796 124.263C215.424 124.524 215.129 124.895 214.945 125.334C214.761 125.773 214.696 126.26 214.759 126.738C214.965 127.906 216.026 129.04 219.756 128.322C223.351 127.57 226.632 125.58 229.118 122.645C230.361 121.286 230.076 120.265 228.88 118.854C225.459 114.873 224.445 108.513 224.136 103.381Z" fill="#FFB573"/>
<path opacity="0.2" d="M217.451 114.493L220.192 109.17C220.25 109.309 220.313 109.456 220.382 109.612C220.625 110.269 220.821 110.946 220.968 111.637C221.467 113.999 219.788 117.374 217.942 118.984L217.729 118.525C217.396 117.759 216.97 117.046 216.461 116.405C216.429 116.37 216.392 116.341 216.351 116.319L217.451 114.493Z" fill="black"/>
<path d="M201.002 96.9248C199.98 99.4431 203.599 106.574 207.742 103.692C211.884 100.81 202.807 92.4679 201.002 96.9248Z" fill="#263238"/>
<path d="M220.968 129.853C220.913 129.854 220.86 129.834 220.818 129.796C220.776 129.758 220.748 129.705 220.738 129.646C220.437 127.508 219.154 126.184 217.705 124.574C215.868 122.61 213.785 120.377 213.103 116.007C213.093 115.943 213.106 115.876 213.14 115.823C213.175 115.769 213.227 115.733 213.286 115.721C213.344 115.71 213.405 115.724 213.454 115.762C213.503 115.799 213.536 115.856 213.547 115.92C214.212 120.135 216.24 122.307 218.022 124.22C219.487 125.786 220.865 127.266 221.19 129.568C221.195 129.6 221.195 129.634 221.188 129.666C221.182 129.698 221.169 129.729 221.151 129.756C221.133 129.782 221.111 129.805 221.085 129.822C221.059 129.838 221.03 129.849 221 129.853H220.968Z" fill="white"/>
<path d="M222.655 94.3896C224.239 102.23 225.474 106.739 222.916 111.698C219.051 119.201 209.389 118.179 205.714 110.962C202.403 104.471 200.431 92.7366 206.585 87.674C207.962 86.5555 209.575 85.8348 211.275 85.5787C212.974 85.3227 214.706 85.5396 216.308 86.2092C217.911 86.8789 219.332 87.9798 220.442 89.4097C221.551 90.8397 222.313 92.5526 222.655 94.3896V94.3896Z" fill="#FFB573"/>
<path d="M224.785 99.7724C222.314 103.606 215.836 96.5705 216.366 91.8454C209.935 95.8435 202.95 101.183 198.713 96.683C193.818 91.4905 195.157 84.0481 200.891 83.3817C199.877 85.5452 205.643 86.5058 208.708 83.1654C213.895 77.5576 222.093 78.7258 221.942 83.2692C225.894 81.5557 230.211 91.3521 224.785 99.7724Z" fill="#263238"/>
<path d="M221.182 84.5414C222.71 83.2952 221.697 78.8557 218.149 77.5576C221.522 78.0336 225.015 80.7769 221.182 84.5414Z" fill="#263238"/>
<path d="M227.074 99.4259C227.142 101.219 226.607 102.977 225.57 104.367C224.207 106.141 222.109 104.731 221.61 102.515C221.174 100.534 221.736 97.4614 223.526 96.5095C225.316 95.5576 226.979 97.1932 227.074 99.4259Z" fill="#FFB573"/>
<path d="M212.359 100.75C212.549 101.382 212.406 102.022 212.026 102.169C211.646 102.317 211.234 101.927 211.004 101.304C210.775 100.681 210.957 100.032 211.337 99.8761C211.717 99.7203 212.169 100.11 212.359 100.75Z" fill="#263238"/>
<path d="M205.865 103.346C206.063 103.987 205.912 104.627 205.532 104.774C205.152 104.921 204.7 104.532 204.51 103.909C204.32 103.286 204.471 102.637 204.843 102.49C205.215 102.342 205.675 102.715 205.865 103.346Z" fill="#263238"/>
<path d="M208.09 102.983C208.116 104.876 207.914 106.764 207.488 108.6C208.652 109.067 209.935 107.968 209.935 107.968L208.09 102.983Z" fill="#ED893E"/>
<path d="M211.567 111.49C212.241 111.247 212.864 110.858 213.396 110.345C213.928 109.831 214.36 109.205 214.664 108.504C214.682 108.456 214.683 108.401 214.665 108.353C214.647 108.304 214.612 108.265 214.569 108.244C214.523 108.227 214.474 108.229 214.429 108.25C214.385 108.27 214.35 108.309 214.331 108.357C213.991 109.113 213.496 109.773 212.885 110.286C212.274 110.799 211.562 111.152 210.807 111.317C210.782 111.32 210.758 111.329 210.736 111.343C210.715 111.357 210.696 111.376 210.682 111.398C210.667 111.42 210.657 111.445 210.652 111.472C210.647 111.499 210.646 111.526 210.651 111.553C210.656 111.58 210.666 111.605 210.68 111.628C210.695 111.65 210.713 111.669 210.734 111.683C210.755 111.698 210.779 111.707 210.804 111.711C210.828 111.715 210.854 111.713 210.878 111.706C211.112 111.651 211.342 111.578 211.567 111.49V111.49Z" fill="#263238"/>
<path d="M212.953 97.9984C213.008 97.9698 213.055 97.9248 213.087 97.8686C213.138 97.78 213.155 97.6731 213.134 97.5711C213.113 97.4691 213.057 97.3802 212.977 97.3234C212.508 96.9778 211.969 96.7639 211.407 96.7005C210.844 96.6371 210.276 96.7262 209.753 96.9599C209.709 96.9812 209.67 97.0121 209.637 97.0505C209.605 97.0888 209.58 97.134 209.563 97.1833C209.547 97.2326 209.54 97.285 209.543 97.3373C209.545 97.3896 209.558 97.4408 209.579 97.4878C209.622 97.5813 209.696 97.6527 209.786 97.6867C209.877 97.7207 209.976 97.7145 210.062 97.6695C210.475 97.4953 210.92 97.4326 211.36 97.4869C211.8 97.5411 212.221 97.7106 212.589 97.9811C212.642 98.0214 212.704 98.0444 212.768 98.0475C212.833 98.0505 212.897 98.0335 212.953 97.9984V97.9984Z" fill="#263238"/>
<path d="M204.582 99.2443C204.597 99.179 204.597 99.1106 204.582 99.0452C204.543 98.9493 204.472 98.8737 204.383 98.8349C204.294 98.796 204.195 98.797 204.106 98.8376C203.579 99.0609 203.11 99.4237 202.743 99.8934C202.375 100.363 202.12 100.925 202 101.529C201.984 101.631 202.006 101.736 202.061 101.82C202.116 101.905 202.199 101.962 202.293 101.979C202.386 101.996 202.482 101.972 202.559 101.912C202.636 101.852 202.689 101.761 202.704 101.659C202.808 101.187 203.014 100.75 203.307 100.385C203.599 100.02 203.969 99.7383 204.384 99.5645C204.439 99.5339 204.486 99.4884 204.52 99.4324C204.555 99.3764 204.576 99.3116 204.582 99.2443Z" fill="#263238"/>
<path d="M244.467 123.753C245.259 125.155 245.892 126.418 246.55 127.768C247.207 129.118 247.841 130.434 248.458 131.784C249.71 134.475 250.834 137.244 251.927 140.066C253.02 142.887 253.979 145.794 254.802 148.823C255.703 152.003 256.308 155.273 256.608 158.585C256.768 160.519 256.707 162.466 256.426 164.383C256.245 165.648 255.893 166.876 255.38 168.027C254.787 169.327 253.963 170.486 252.957 171.436C252.051 172.297 251.017 172.982 249.9 173.461C248.962 173.864 247.988 174.154 246.993 174.327C245.314 174.614 243.607 174.663 241.916 174.474C240.406 174.334 238.908 174.07 237.434 173.686C236.026 173.336 234.636 172.909 233.268 172.406C230.579 171.433 227.968 170.223 225.459 168.788L227.462 162.964C232.389 163.985 237.679 164.929 242.122 164.634C243.094 164.579 244.056 164.399 244.989 164.098C245.781 163.838 246.185 163.449 246.154 163.328C246.122 163.206 246.106 163.328 246.09 163.241C246.074 163.154 246.09 163.146 246.09 162.704C246.139 161.732 246.086 160.756 245.932 159.797C245.553 157.327 244.962 154.902 244.166 152.553C243.374 150.044 242.415 147.508 241.378 144.998C240.34 142.489 239.224 139.97 238.091 137.461C237.521 136.203 236.932 134.96 236.325 133.731L234.535 130.105L244.467 123.753Z" fill="#FFB573"/>
<path d="M240.768 117.963C233.117 116.691 229.355 123.865 232.959 134.579C234.82 140.374 237.158 145.973 239.944 151.307L256.442 143.406C253.44 132.805 248.593 119.27 240.768 117.963Z" fill="#263238"/>
<path d="M223.217 162.168L219.685 163.328L224.698 171.116C224.698 171.116 232.127 168.208 230.607 164.678L228.737 163.518C227.138 162.505 225.11 161.458 223.217 162.168Z" fill="#FFB573"/>
<path d="M216.557 168.693L220.097 172.553L224.698 171.107L219.685 163.327L216.557 168.693Z" fill="#FFB573"/>
<path d="M224.278 101.901C224.908 101.901 225.419 101.227 225.419 100.395C225.419 99.5638 224.908 98.8896 224.278 98.8896C223.649 98.8896 223.138 99.5638 223.138 100.395C223.138 101.227 223.649 101.901 224.278 101.901Z" fill="white"/>
<path d="M225.221 104.376L224.564 104.35L224.16 100.88L225.411 100.577L225.221 104.376Z" fill="white"/>
<path d="M229.767 169.792C227.391 169.792 225.284 169.402 224.009 168.139C223.534 167.638 223.163 167.031 222.924 166.358C222.685 165.686 222.582 164.965 222.623 164.245C222.696 160.676 223.204 157.134 224.136 153.713C225.237 148.996 226.108 145.275 223.463 140.68C219.249 133.384 220.509 123.181 223.463 116.786C225.72 111.896 224.928 106.444 224.643 104.437C224.603 104.177 224.571 103.969 224.556 103.831C224.552 103.798 224.555 103.765 224.564 103.734C224.573 103.703 224.587 103.674 224.606 103.649C224.625 103.624 224.649 103.603 224.676 103.588C224.703 103.573 224.732 103.565 224.762 103.563C224.821 103.555 224.881 103.574 224.929 103.614C224.976 103.655 225.007 103.714 225.015 103.779C225.015 103.909 225.055 104.108 225.086 104.359C225.387 106.444 226.171 111.974 223.843 117.011C220.952 123.285 219.717 133.281 223.843 140.377C226.591 145.145 225.657 149.152 224.571 153.791C223.659 157.165 223.161 160.657 223.09 164.175C223.048 164.826 223.135 165.479 223.347 166.089C223.559 166.699 223.891 167.251 224.318 167.706C226.456 169.809 231.177 169.273 235.739 168.753C237.782 168.528 239.897 168.286 241.758 168.286C241.819 168.286 241.877 168.313 241.92 168.36C241.963 168.407 241.988 168.47 241.988 168.537C241.988 168.604 241.963 168.667 241.92 168.715C241.877 168.762 241.819 168.788 241.758 168.788C239.92 168.788 237.798 169.022 235.786 169.255C233.789 169.545 231.78 169.724 229.767 169.792V169.792Z" fill="white"/>
<path d="M251.238 167.94H242.225C241.963 167.94 241.75 168.172 241.75 168.459V169.152C241.75 169.438 241.963 169.671 242.225 169.671H251.238C251.501 169.671 251.713 169.438 251.713 169.152V168.459C251.713 168.172 251.501 167.94 251.238 167.94Z" fill="white"/>
<path d="M307.803 175.434H88.1971C87.4982 175.432 86.8286 175.128 86.3345 174.588C85.8403 174.048 85.5618 173.316 85.5597 172.553C85.5618 171.789 85.8403 171.057 86.3345 170.517C86.8286 169.978 87.4982 169.673 88.1971 169.671H307.803C308.502 169.673 309.171 169.978 309.665 170.517C310.16 171.057 310.438 171.789 310.44 172.553V172.553C310.438 173.316 310.16 174.048 309.665 174.588C309.171 175.128 308.502 175.432 307.803 175.434V175.434Z" fill="#0192D9"/>
<path opacity="0.3" d="M307.803 175.434H256.394C255.695 175.432 255.026 175.128 254.531 174.588C254.037 174.048 253.759 173.316 253.757 172.553V172.553C253.759 171.789 254.037 171.057 254.531 170.517C255.026 169.978 255.695 169.673 256.394 169.671H307.803C308.502 169.673 309.171 169.978 309.665 170.517C310.16 171.057 310.438 171.789 310.44 172.553V172.553C310.438 173.316 310.16 174.048 309.665 174.588C309.171 175.128 308.502 175.432 307.803 175.434V175.434Z" fill="#263238"/>
<path d="M305.379 311.216H310.44L304.619 175.435H297.618L305.379 311.216Z" fill="#263238"/>
<path opacity="0.1" d="M305.379 311.216H310.44L304.619 175.435H297.618L305.379 311.216Z" fill="white"/>
<path d="M258.818 311.216H253.757L259.578 175.435H266.579L258.818 311.216Z" fill="#263238"/>
<path opacity="0.2" d="M258.818 311.216H253.757L259.578 175.435H266.579L258.818 311.216Z" fill="white"/>
<path d="M137.19 311.216H142.243L136.422 175.435H129.421L137.19 311.216Z" fill="#263238"/>
<path opacity="0.1" d="M137.19 311.216H142.243L136.422 175.435H129.421L137.19 311.216Z" fill="white"/>
<path d="M90.6206 311.216H85.5597L91.3809 175.435H98.3822L90.6206 311.216Z" fill="#263238"/>
<path opacity="0.2" d="M90.6206 311.216H85.5597L91.3809 175.435H98.3822L90.6206 311.216Z" fill="white"/>
<path d="M261.748 182.661H92.854V194.041H261.748V182.661Z" fill="#263238"/>
<path opacity="0.2" d="M261.748 182.661H92.854V194.041H261.748V182.661Z" fill="white"/>
<path d="M120.645 162.021C120.353 162.021 120.072 162.147 119.864 162.373C119.656 162.598 119.539 162.904 119.536 163.224V168.416C119.536 168.737 119.653 169.046 119.861 169.273C120.069 169.5 120.351 169.628 120.645 169.628H156.562C156.658 169.628 156.749 169.587 156.817 169.514C156.885 169.441 156.925 169.342 156.927 169.238V162.367C156.925 162.263 156.885 162.164 156.817 162.091C156.749 162.018 156.658 161.978 156.562 161.978L120.645 162.021Z" fill="#0192D9"/>
<path opacity="0.9" d="M141.903 162.748H156.951V168.944H141.903C141.732 168.944 141.569 168.87 141.449 168.739C141.329 168.607 141.261 168.429 141.261 168.243V163.44C141.263 163.255 141.332 163.079 141.452 162.95C141.572 162.82 141.734 162.748 141.903 162.748V162.748Z" fill="white"/>
<path d="M139.432 162.021H103.15C102.538 162.021 102.041 162.563 102.041 163.232V168.468C102.041 169.137 102.538 169.679 103.15 169.679H139.432C140.044 169.679 140.54 169.137 140.54 168.468V163.232C140.54 162.563 140.044 162.021 139.432 162.021Z" fill="#0192D9"/>
<path opacity="0.2" d="M139.432 162.021H103.15C102.538 162.021 102.041 162.563 102.041 163.232V168.468C102.041 169.137 102.538 169.679 103.15 169.679H139.432C140.044 169.679 140.54 169.137 140.54 168.468V163.232C140.54 162.563 140.044 162.021 139.432 162.021Z" fill="black"/>
<path opacity="0.5" d="M121.588 162.021H116.083C115.834 162.021 115.632 162.241 115.632 162.514V169.186C115.632 169.458 115.834 169.679 116.083 169.679H121.588C121.837 169.679 122.039 169.458 122.039 169.186V162.514C122.039 162.241 121.837 162.021 121.588 162.021Z" fill="#0192D9"/>
<path opacity="0.5" d="M129.532 162.021H124.035C123.786 162.021 123.584 162.241 123.584 162.514V169.186C123.584 169.458 123.786 169.679 124.035 169.679H129.532C129.781 169.679 129.983 169.458 129.983 169.186V162.514C129.983 162.241 129.781 162.021 129.532 162.021Z" fill="#0192D9"/>
<path d="M114.151 152.588C114.005 152.588 113.861 152.619 113.727 152.68C113.592 152.741 113.47 152.83 113.367 152.942C113.264 153.055 113.182 153.189 113.127 153.336C113.071 153.483 113.042 153.64 113.042 153.799V160.809C113.042 160.968 113.071 161.126 113.127 161.273C113.182 161.42 113.264 161.553 113.367 161.666C113.47 161.778 113.592 161.867 113.727 161.928C113.861 161.989 114.005 162.021 114.151 162.021H153.062C153.157 162.018 153.248 161.975 153.314 161.901C153.381 161.826 153.418 161.727 153.418 161.622V152.968C153.418 152.864 153.381 152.764 153.314 152.69C153.248 152.616 153.157 152.573 153.062 152.57L114.151 152.588Z" fill="#0192D9"/>
<path opacity="0.9" d="M135.432 153.323H153.442V161.294H135.432C135.262 161.294 135.099 161.22 134.978 161.088C134.858 160.957 134.79 160.779 134.79 160.593V154.042C134.788 153.948 134.803 153.855 134.835 153.768C134.866 153.681 134.913 153.602 134.973 153.535C135.032 153.468 135.104 153.415 135.183 153.378C135.262 153.342 135.346 153.323 135.432 153.323Z" fill="white"/>
<path d="M132.929 152.588H102.421C101.809 152.588 101.313 153.13 101.313 153.799V160.801C101.313 161.47 101.809 162.012 102.421 162.012H132.929C133.542 162.012 134.038 161.47 134.038 160.801V153.799C134.038 153.13 133.542 152.588 132.929 152.588Z" fill="#0192D9"/>
<path opacity="0.2" d="M132.929 152.588H102.421C101.809 152.588 101.313 153.13 101.313 153.799V160.801C101.313 161.47 101.809 162.012 102.421 162.012H132.929C133.542 162.012 134.038 161.47 134.038 160.801V153.799C134.038 153.13 133.542 152.588 132.929 152.588Z" fill="white"/>
<path opacity="0.6" d="M130.07 154.457H107.728C107.356 154.457 107.055 154.787 107.055 155.193V159.407C107.055 159.814 107.356 160.143 107.728 160.143H130.07C130.442 160.143 130.743 159.814 130.743 159.407V155.193C130.743 154.787 130.442 154.457 130.07 154.457Z" fill="#0192D9"/>
<path d="M125.564 148.079C124.954 148.079 124.455 148.399 124.455 148.789V151.878C124.455 152.268 124.954 152.588 125.564 152.588H161.489C161.687 152.588 161.845 152.484 161.845 152.363V148.313C161.845 148.183 161.687 148.079 161.489 148.079H125.564Z" fill="#0192D9"/>
<path opacity="0.9" d="M146.678 148.503H161.845V152.155H146.678C146.548 152.155 146.423 152.098 146.331 151.998C146.239 151.897 146.187 151.761 146.187 151.618V149.022C146.191 148.883 146.245 148.751 146.337 148.654C146.428 148.557 146.551 148.503 146.678 148.503V148.503Z" fill="white"/>
<path d="M144.611 148.079H107.807C107.339 148.079 106.96 148.494 106.96 149.005V151.671C106.96 152.182 107.339 152.597 107.807 152.597H144.611C145.079 152.597 145.459 152.182 145.459 151.671V149.005C145.459 148.494 145.079 148.079 144.611 148.079Z" fill="#0192D9"/>
<path opacity="0.2" d="M144.611 148.079H107.807C107.339 148.079 106.96 148.494 106.96 149.005V151.671C106.96 152.182 107.339 152.597 107.807 152.597H144.611C145.079 152.597 145.459 152.182 145.459 151.671V149.005C145.459 148.494 145.079 148.079 144.611 148.079Z" fill="black"/>
<path opacity="0.5" d="M112.432 148.079H111.284C111.192 148.079 111.118 148.16 111.118 148.261V152.415C111.118 152.515 111.192 152.597 111.284 152.597H112.432C112.524 152.597 112.599 152.515 112.599 152.415V148.261C112.599 148.16 112.524 148.079 112.432 148.079Z" fill="#0192D9"/>
<path opacity="0.5" d="M142.307 148.079H141.182C141.09 148.079 141.016 148.16 141.016 148.261V152.415C141.016 152.515 141.09 152.597 141.182 152.597H142.307C142.398 152.597 142.473 152.515 142.473 152.415V148.261C142.473 148.16 142.398 148.079 142.307 148.079Z" fill="#0192D9"/>
<path d="M119.069 141.554C118.459 141.554 117.96 141.874 117.96 142.263V147.361C117.96 147.759 118.459 148.079 119.069 148.079H157.98C158.178 148.079 158.344 147.975 158.344 147.845V141.787C158.344 141.658 158.178 141.554 157.98 141.554H119.069Z" fill="#0192D9"/>
<path opacity="0.9" d="M140.184 141.978H158.344V147.647H140.184C140.054 147.647 139.929 147.59 139.837 147.49C139.745 147.389 139.693 147.252 139.693 147.11V142.515C139.693 142.373 139.745 142.236 139.837 142.135C139.929 142.035 140.054 141.978 140.184 141.978V141.978Z" fill="white"/>
<path d="M138.109 141.554H107.078C106.61 141.554 106.231 141.968 106.231 142.48V147.153C106.231 147.664 106.61 148.079 107.078 148.079H138.109C138.577 148.079 138.956 147.664 138.956 147.153V142.48C138.956 141.968 138.577 141.554 138.109 141.554Z" fill="#0192D9"/>
<path opacity="0.1" d="M138.109 141.554H107.078C106.61 141.554 106.231 141.968 106.231 142.48V147.153C106.231 147.664 106.61 148.079 107.078 148.079H138.109C138.577 148.079 138.956 147.664 138.956 147.153V142.48C138.956 141.968 138.577 141.554 138.109 141.554Z" fill="black"/>
<path d="M205.857 168.234H173.171C172.996 168.234 172.828 168.31 172.703 168.444C172.578 168.579 172.507 168.761 172.505 168.953V168.953C172.507 169.144 172.578 169.327 172.703 169.461C172.828 169.596 172.996 169.671 173.171 169.671H205.857C206.031 169.671 206.198 169.595 206.321 169.461C206.445 169.326 206.514 169.143 206.514 168.953V168.953C206.514 168.762 206.445 168.579 206.321 168.445C206.198 168.31 206.031 168.234 205.857 168.234V168.234Z" fill="white"/>
<path d="M269.803 166.521H291.282L293.222 169.593H267.862L269.803 166.521Z" fill="#263238"/>
<path d="M302.972 114.086C302.972 114.711 302.802 115.321 302.484 115.841C302.167 116.36 301.715 116.765 301.187 117.004C300.659 117.243 300.078 117.306 299.517 117.184C298.956 117.062 298.441 116.761 298.037 116.32C297.632 115.878 297.357 115.315 297.246 114.702C297.134 114.089 297.191 113.454 297.41 112.877C297.629 112.3 297.999 111.807 298.475 111.46C298.95 111.113 299.509 110.927 300.081 110.927C300.461 110.926 300.837 111.007 301.188 111.165C301.54 111.324 301.859 111.556 302.127 111.85C302.396 112.143 302.609 112.492 302.754 112.876C302.899 113.26 302.973 113.671 302.972 114.086V114.086Z" fill="black"/>
<path d="M281.255 168.598C281.104 168.597 280.956 168.556 280.823 168.479C280.691 168.401 280.577 168.289 280.494 168.152C280.41 168.015 280.358 167.858 280.343 167.694C280.328 167.531 280.35 167.365 280.407 167.213L301.102 113.697C301.209 113.473 301.389 113.302 301.606 113.216C301.823 113.131 302.062 113.138 302.274 113.236C302.487 113.335 302.658 113.516 302.753 113.746C302.849 113.976 302.862 114.236 302.789 114.475L282.094 167.983C282.025 168.164 281.908 168.319 281.759 168.428C281.61 168.537 281.434 168.596 281.255 168.598Z" fill="#263238"/>
<path d="M301.942 115.098C301.745 115.096 301.554 115.026 301.396 114.899L263.815 84.0997C263.622 83.9414 263.494 83.7056 263.46 83.4443C263.426 83.183 263.488 82.9176 263.633 82.7065C263.778 82.4953 263.994 82.3557 264.233 82.3184C264.472 82.281 264.715 82.349 264.908 82.5074L302.497 113.29C302.648 113.417 302.76 113.593 302.816 113.793C302.872 113.994 302.869 114.208 302.808 114.406C302.747 114.604 302.63 114.777 302.475 114.9C302.32 115.022 302.134 115.089 301.942 115.09V115.098Z" fill="#263238"/>
<path d="M304.833 114.086C304.833 114.711 304.663 115.321 304.346 115.841C304.028 116.36 303.576 116.765 303.048 117.004C302.52 117.243 301.939 117.306 301.378 117.184C300.817 117.062 300.302 116.761 299.898 116.32C299.494 115.878 299.218 115.315 299.107 114.702C298.995 114.089 299.052 113.454 299.271 112.877C299.49 112.3 299.861 111.807 300.336 111.46C300.811 111.113 301.37 110.927 301.942 110.927C302.322 110.926 302.698 111.007 303.049 111.165C303.401 111.324 303.72 111.556 303.988 111.85C304.257 112.143 304.47 112.492 304.615 112.876C304.76 113.26 304.834 113.671 304.833 114.086V114.086Z" fill="#263238"/>
<path d="M264.362 86.4539C265.954 86.4539 267.245 85.0436 267.245 83.3039C267.245 81.5641 265.954 80.1538 264.362 80.1538C262.769 80.1538 261.479 81.5641 261.479 83.3039C261.479 85.0436 262.769 86.4539 264.362 86.4539Z" fill="#263238"/>
<path d="M260.322 97.7042C259.419 98.6918 258.267 99.3644 257.013 99.6369C255.76 99.9093 254.46 99.7695 253.279 99.235C252.098 98.7005 251.089 97.7954 250.379 96.6341C249.669 95.4728 249.29 94.1075 249.29 92.7109C249.29 91.3142 249.669 89.9489 250.379 88.7876C251.089 87.6263 252.098 86.7212 253.279 86.1867C254.46 85.6522 255.76 85.5124 257.013 85.7849C258.267 86.0573 259.419 86.7299 260.322 87.7175C261.532 89.0429 262.212 90.8387 262.212 92.7109C262.212 94.583 261.532 96.3788 260.322 97.7042V97.7042Z" fill="#0192D9"/>
<path opacity="0.7" d="M260.322 97.7042C259.419 98.6918 258.267 99.3644 257.013 99.6369C255.76 99.9093 254.46 99.7695 253.279 99.235C252.098 98.7005 251.089 97.7954 250.379 96.6341C249.669 95.4728 249.29 94.1075 249.29 92.7109C249.29 91.3142 249.669 89.9489 250.379 88.7876C251.089 87.6263 252.098 86.7212 253.279 86.1867C254.46 85.6522 255.76 85.5124 257.013 85.7849C258.267 86.0573 259.419 86.7299 260.322 87.7175C261.532 89.0429 262.212 90.8387 262.212 92.7109C262.212 94.583 261.532 96.3788 260.322 97.7042V97.7042Z" fill="white"/>
<path d="M264.362 83.3039C263.077 81.8983 261.551 80.7831 259.871 80.0223C258.191 79.2615 256.391 78.8699 254.573 78.8699C252.754 78.8699 250.954 79.2615 249.274 80.0223C247.594 80.7831 246.068 81.8983 244.783 83.3039L264.362 104.714C265.65 103.309 266.671 101.64 267.368 99.8034C268.065 97.9666 268.424 95.9975 268.424 94.009C268.424 92.0204 268.065 90.0514 267.368 88.2145C266.671 86.3776 265.65 84.7089 264.362 83.3039V83.3039Z" fill="#263238"/>
<g opacity="0.2">
<path d="M244.775 83.3037L162.55 169.671H246.906L264.362 104.705L244.775 83.3037Z" fill="#0192D9"/>
<path opacity="0.7" d="M244.775 83.3037L162.55 169.671H246.906L264.362 104.705L244.775 83.3037Z" fill="white"/>
</g>
</svg>
